<svg width="308" height="100" viewBox="0 0 308 100" fill="none" xmlns="http://www.w3.org/2000/svg">
<path d="M46.4645 3.53553C48.4171 1.58291 51.5829 1.58291 53.5355 3.53553L96.4645 46.4645C98.4171 48.4171 98.4171 51.5829 96.4645 53.5355L53.5355 96.4645C51.5829 98.4171 48.4171 98.4171 46.4645 96.4645L3.53553 53.5355C1.58291 51.5829 1.58291 48.4171 3.53553 46.4645L46.4645 3.53553Z" fill="#D6E5FD"/>
<path d="M50 37.5C50.5525 37.5 51.0824 37.7195 51.4731 38.1102C51.8638 38.5009 52.0833 39.0308 52.0833 39.5833V47.9167H56.25C56.8025 47.9167 57.3324 48.1362 57.7231 48.5269C58.1138 48.9176 58.3333 49.4475 58.3333 50C58.3333 50.5525 58.1138 51.0824 57.7231 51.4731C57.3324 51.8638 56.8025 52.0833 56.25 52.0833H50C49.4475 52.0833 48.9176 51.8638 48.5269 51.4731C48.1362 51.0824 47.9167 50.5525 47.9167 50V39.5833C47.9167 39.0308 48.1362 38.5009 48.5269 38.1102C48.9176 37.7195 49.4475 37.5 50 37.5Z" fill="#2D76F9"/>
<path opacity="0.5" d="M29.1667 50.0001C29.1667 54.1205 30.3885 58.1484 32.6777 61.5745C34.9669 65.0005 38.2206 67.6707 42.0274 69.2476C45.8342 70.8244 50.0231 71.237 54.0644 70.4331C58.1056 69.6292 61.8178 67.6451 64.7314 64.7315C67.645 61.8179 69.6292 58.1057 70.433 54.0645C71.2369 50.0232 70.8243 45.8343 69.2475 42.0275C67.6707 38.2207 65.0004 34.967 61.5744 32.6778C58.1484 30.3886 54.1204 29.1667 50 29.1667C47.2641 29.1667 44.555 29.7056 42.0274 30.7526C39.4998 31.7996 37.2032 33.3341 35.2686 35.2687C31.3616 39.1757 29.1667 44.4747 29.1667 50.0001ZM47.9167 39.5834C47.9167 39.0309 48.1362 38.501 48.5269 38.1103C48.9176 37.7196 49.4475 37.5001 50 37.5001C50.5525 37.5001 51.0824 37.7196 51.4731 38.1103C51.8638 38.501 52.0833 39.0309 52.0833 39.5834V47.9167H56.25C56.8025 47.9167 57.3324 48.1362 57.7231 48.5269C58.1138 48.9176 58.3333 49.4475 58.3333 50.0001C58.3333 50.5526 58.1138 51.0825 57.7231 51.4732C57.3324 51.8639 56.8025 52.0834 56.25 52.0834H50C49.4475 52.0834 48.9176 51.8639 48.5269 51.4732C48.1362 51.0825 47.9167 50.5526 47.9167 50.0001V39.5834Z" fill="#2D76F9"/>
<path d="M153.04 59.084C153.328 59.516 153.472 59.936 153.472 60.344C153.472 60.896 153.244 61.352 152.788 61.712C152.356 62.072 151.84 62.252 151.24 62.252C150.856 62.252 150.484 62.168 150.124 62C149.788 61.808 149.5 61.532 149.26 61.172L144.472 53.9C143.992 53.132 143.476 52.592 142.924 52.28C142.396 51.968 141.7 51.812 140.836 51.812H137.308V59.876C137.308 60.596 137.104 61.172 136.696 61.604C136.288 62.012 135.736 62.216 135.04 62.216C134.344 62.216 133.78 62.012 133.348 61.604C132.94 61.172 132.736 60.596 132.736 59.876V38.816C132.736 38.12 132.928 37.58 133.312 37.196C133.72 36.812 134.272 36.62 134.968 36.62H143.968C146.848 36.62 149.032 37.268 150.52 38.564C152.032 39.836 152.788 41.684 152.788 44.108C152.788 46.076 152.224 47.696 151.096 48.968C149.992 50.216 148.42 51.02 146.38 51.38C147.076 51.548 147.688 51.848 148.216 52.28C148.744 52.712 149.26 53.312 149.764 54.08L153.04 59.084ZM143.32 48.248C145.072 48.248 146.356 47.924 147.172 47.276C147.988 46.604 148.396 45.584 148.396 44.216C148.396 42.824 147.988 41.816 147.172 41.192C146.356 40.544 145.072 40.22 143.32 40.22H137.272V48.248H143.32ZM171.303 57.176C171.711 57.176 172.035 57.332 172.275 57.644C172.539 57.956 172.671 58.376 172.671 58.904C172.671 59.648 172.227 60.272 171.339 60.776C170.523 61.232 169.599 61.604 168.567 61.892C167.535 62.156 166.551 62.288 165.615 62.288C162.783 62.288 160.539 61.472 158.883 59.84C157.227 58.208 156.399 55.976 156.399 53.144C156.399 51.344 156.759 49.748 157.479 48.356C158.199 46.964 159.207 45.884 160.503 45.116C161.823 44.348 163.311 43.964 164.967 43.964C166.551 43.964 167.931 44.312 169.107 45.008C170.283 45.704 171.195 46.688 171.843 47.96C172.491 49.232 172.815 50.732 172.815 52.46C172.815 53.492 172.359 54.008 171.447 54.008H160.827C160.971 55.664 161.439 56.888 162.231 57.68C163.023 58.448 164.175 58.832 165.687 58.832C166.455 58.832 167.127 58.736 167.703 58.544C168.303 58.352 168.975 58.088 169.719 57.752C170.439 57.368 170.967 57.176 171.303 57.176ZM165.075 47.132C163.851 47.132 162.867 47.516 162.123 48.284C161.403 49.052 160.971 50.156 160.827 51.596H168.963C168.915 50.132 168.555 49.028 167.883 48.284C167.211 47.516 166.275 47.132 165.075 47.132ZM197.412 43.964C199.332 43.964 200.796 44.54 201.804 45.692C202.836 46.82 203.352 48.656 203.352 51.2V60.056C203.352 60.752 203.136 61.292 202.704 61.676C202.296 62.036 201.756 62.216 201.084 62.216C200.436 62.216 199.896 62.036 199.464 61.676C199.056 61.292 198.852 60.752 198.852 60.056V51.2C198.852 49.88 198.612 48.944 198.132 48.392C197.676 47.816 196.968 47.528 196.008 47.528C194.832 47.528 193.896 47.936 193.2 48.752C192.504 49.544 192.156 50.636 192.156 52.028V60.056C192.156 60.752 191.94 61.292 191.508 61.676C191.1 62.036 190.572 62.216 189.924 62.216C189.276 62.216 188.736 62.036 188.304 61.676C187.872 61.292 187.656 60.752 187.656 60.056V51.2C187.656 49.88 187.416 48.944 186.936 48.392C186.48 47.816 185.772 47.528 184.812 47.528C183.636 47.528 182.7 47.936 182.004 48.752C181.332 49.544 180.996 50.636 180.996 52.028V60.056C180.996 60.752 180.78 61.292 180.348 61.676C179.916 62.036 179.376 62.216 178.728 62.216C178.08 62.216 177.54 62.036 177.108 61.676C176.7 61.292 176.496 60.752 176.496 60.056V46.124C176.496 45.452 176.712 44.936 177.144 44.576C177.576 44.216 178.116 44.036 178.764 44.036C179.388 44.036 179.892 44.216 180.276 44.576C180.684 44.912 180.888 45.404 180.888 46.052V46.916C181.44 45.956 182.172 45.224 183.084 44.72C184.02 44.216 185.088 43.964 186.288 43.964C188.928 43.964 190.692 45.068 191.58 47.276C192.108 46.268 192.888 45.464 193.92 44.864C194.952 44.264 196.116 43.964 197.412 43.964ZM210.158 62.216C209.51 62.216 208.97 62.036 208.538 61.676C208.13 61.292 207.926 60.752 207.926 60.056V46.16C207.926 45.464 208.13 44.936 208.538 44.576C208.97 44.216 209.51 44.036 210.158 44.036C210.806 44.036 211.346 44.216 211.778 44.576C212.21 44.936 212.426 45.464 212.426 46.16V60.056C212.426 60.752 212.21 61.292 211.778 61.676C211.346 62.036 210.806 62.216 210.158 62.216ZM210.158 40.832C209.342 40.832 208.694 40.616 208.214 40.184C207.734 39.728 207.494 39.14 207.494 38.42C207.494 37.7 207.734 37.124 208.214 36.692C208.694 36.26 209.342 36.044 210.158 36.044C210.95 36.044 211.586 36.26 212.066 36.692C212.57 37.124 212.822 37.7 212.822 38.42C212.822 39.14 212.582 39.728 212.102 40.184C211.622 40.616 210.974 40.832 210.158 40.832ZM227.291 43.964C229.403 43.964 230.975 44.564 232.007 45.764C233.039 46.964 233.555 48.776 233.555 51.2V60.056C233.555 60.728 233.351 61.256 232.943 61.64C232.559 62.024 232.019 62.216 231.323 62.216C230.627 62.216 230.075 62.024 229.667 61.64C229.259 61.256 229.055 60.728 229.055 60.056V51.452C229.055 50.084 228.791 49.088 228.263 48.464C227.759 47.84 226.955 47.528 225.851 47.528C224.555 47.528 223.511 47.936 222.719 48.752C221.951 49.568 221.567 50.66 221.567 52.028V60.056C221.567 60.728 221.363 61.256 220.955 61.64C220.547 62.024 219.995 62.216 219.299 62.216C218.603 62.216 218.051 62.024 217.643 61.64C217.259 61.256 217.067 60.728 217.067 60.056V46.124C217.067 45.5 217.271 44.996 217.679 44.612C218.087 44.228 218.639 44.036 219.335 44.036C219.959 44.036 220.463 44.228 220.847 44.612C221.255 44.972 221.459 45.452 221.459 46.052V47.024C222.059 46.04 222.863 45.284 223.871 44.756C224.879 44.228 226.019 43.964 227.291 43.964ZM252.813 36.44C253.485 36.44 254.037 36.632 254.469 37.016C254.901 37.4 255.117 37.904 255.117 38.528V60.056C255.117 60.704 254.913 61.22 254.505 61.604C254.097 61.988 253.557 62.18 252.885 62.18C252.213 62.18 251.673 61.988 251.265 61.604C250.857 61.22 250.653 60.704 250.653 60.056V59.156C250.125 60.14 249.357 60.908 248.349 61.46C247.365 62.012 246.237 62.288 244.965 62.288C243.453 62.288 242.097 61.904 240.897 61.136C239.721 60.368 238.797 59.288 238.125 57.896C237.477 56.48 237.153 54.86 237.153 53.036C237.153 51.212 237.477 49.616 238.125 48.248C238.797 46.88 239.721 45.824 240.897 45.08C242.073 44.336 243.429 43.964 244.965 43.964C246.237 43.964 247.365 44.228 248.349 44.756C249.333 45.284 250.089 46.028 250.617 46.988V38.456C250.617 37.856 250.809 37.376 251.193 37.016C251.601 36.632 252.141 36.44 252.813 36.44ZM246.153 58.796C247.593 58.796 248.697 58.304 249.465 57.32C250.257 56.336 250.653 54.932 250.653 53.108C250.653 51.284 250.257 49.892 249.465 48.932C248.697 47.948 247.605 47.456 246.189 47.456C244.749 47.456 243.633 47.936 242.841 48.896C242.049 49.856 241.653 51.236 241.653 53.036C241.653 54.86 242.049 56.276 242.841 57.284C243.633 58.292 244.737 58.796 246.153 58.796Z" fill="#212121"/>
<path d="M280.662 43.964C282.582 43.964 284.046 44.54 285.054 45.692C286.086 46.82 286.602 48.656 286.602 51.2V60.056C286.602 60.752 286.386 61.292 285.954 61.676C285.546 62.036 285.006 62.216 284.334 62.216C283.686 62.216 283.146 62.036 282.714 61.676C282.306 61.292 282.102 60.752 282.102 60.056V51.2C282.102 49.88 281.862 48.944 281.382 48.392C280.926 47.816 280.218 47.528 279.258 47.528C278.082 47.528 277.146 47.936 276.45 48.752C275.754 49.544 275.406 50.636 275.406 52.028V60.056C275.406 60.752 275.19 61.292 274.758 61.676C274.35 62.036 273.822 62.216 273.174 62.216C272.526 62.216 271.986 62.036 271.554 61.676C271.122 61.292 270.906 60.752 270.906 60.056V51.2C270.906 49.88 270.666 48.944 270.186 48.392C269.73 47.816 269.022 47.528 268.062 47.528C266.886 47.528 265.95 47.936 265.254 48.752C264.582 49.544 264.246 50.636 264.246 52.028V60.056C264.246 60.752 264.03 61.292 263.598 61.676C263.166 62.036 262.626 62.216 261.978 62.216C261.33 62.216 260.79 62.036 260.358 61.676C259.95 61.292 259.746 60.752 259.746 60.056V46.124C259.746 45.452 259.962 44.936 260.394 44.576C260.826 44.216 261.366 44.036 262.014 44.036C262.638 44.036 263.142 44.216 263.526 44.576C263.934 44.912 264.138 45.404 264.138 46.052V46.916C264.69 45.956 265.422 45.224 266.334 44.72C267.27 44.216 268.338 43.964 269.538 43.964C272.178 43.964 273.942 45.068 274.83 47.276C275.358 46.268 276.138 45.464 277.17 44.864C278.202 44.264 279.366 43.964 280.662 43.964ZM305.108 57.176C305.516 57.176 305.84 57.332 306.08 57.644C306.344 57.956 306.476 58.376 306.476 58.904C306.476 59.648 306.032 60.272 305.144 60.776C304.328 61.232 303.404 61.604 302.372 61.892C301.34 62.156 300.356 62.288 299.42 62.288C296.588 62.288 294.344 61.472 292.688 59.84C291.032 58.208 290.204 55.976 290.204 53.144C290.204 51.344 290.564 49.748 291.284 48.356C292.004 46.964 293.012 45.884 294.308 45.116C295.628 44.348 297.116 43.964 298.772 43.964C300.356 43.964 301.736 44.312 302.912 45.008C304.088 45.704 305 46.688 305.648 47.96C306.296 49.232 306.62 50.732 306.62 52.46C306.62 53.492 306.164 54.008 305.252 54.008H294.632C294.776 55.664 295.244 56.888 296.036 57.68C296.828 58.448 297.98 58.832 299.492 58.832C300.26 58.832 300.932 58.736 301.508 58.544C302.108 58.352 302.78 58.088 303.524 57.752C304.244 57.368 304.772 57.176 305.108 57.176ZM298.88 47.132C297.656 47.132 296.672 47.516 295.928 48.284C295.208 49.052 294.776 50.156 294.632 51.596H302.768C302.72 50.132 302.36 49.028 301.688 48.284C301.016 47.516 300.08 47.132 298.88 47.132Z" fill="#2D76F9"/>
</svg>
